<?xml version="1.0" encoding="UTF-8"?>
<svg xmlns="http://www.w3.org/2000/svg" width="64" height="64" viewBox="0 0 64 64">
  <defs>
    <linearGradient id="g1" x1="0" y1="0" x2="1" y2="1">
      <stop offset="0%" stop-color="#6f2da8"/>
      <stop offset="60%" stop-color="#8e49cc"/>
      <stop offset="100%" stop-color="#b983ff"/>
    </linearGradient>
    <filter id="f" x="-20%" y="-20%" width="140%" height="140%" color-interpolation-filters="sRGB">
      <feGaussianBlur in="SourceGraphic" stdDeviation="1.2" result="blur"/>
      <feColorMatrix in="blur" type="matrix" values="0 0 0 0 0.46  0 0 0 0 0.29  0 0 0 0 0.66  0 0 0 0.35 0" result="shadow"/>
      <feBlend in="SourceGraphic" in2="shadow" mode="normal"/>
    </filter>
  </defs>
  <rect x="4" y="4" width="56" height="56" rx="14" fill="url(#g1)" />
  <path fill="#ffffff" filter="url(#f)" d="M32 15c-6.9 0-12.5 5.6-12.5 12.5v4.9c0 2.2-.9 4.3-2.4 5.9l-1.1 1.1c-.6.6-.9 1.3-.9 2.1 0 1.6 1.3 2.9 2.9 2.9H46c1.6 0 2.9-1.3 2.9-2.9 0-.8-.3-1.5-.9-2.1l-1.1-1.1c-1.6-1.6-2.5-3.7-2.5-6v-4.8C43.5 20.6 38.9 15 32 15Zm0 6c3.6 0 6.5 2.9 6.5 6.5v5.2c0 1.6.3 3.2.9 4.6H24.5c.6-1.5.9-3 .9-4.6v-5.2c0-3.6 2.9-6.5 6.5-6.5Zm0 20.8c1.9 0 3.5 1.6 3.5 3.5S33.9 48.8 32 48.8s-3.5-1.6-3.5-3.5 1.6-3.5 3.5-3.5Z"/>
</svg>
